<svg width="16" height="16" viewBox="0 0 16 16" fill="none" xmlns="http://www.w3.org/2000/svg">
<g clip-path="url(#clip0_362_705)">
<path d="M5.99992 14.6667C6.36811 14.6667 6.66659 14.3682 6.66659 14C6.66659 13.6318 6.36811 13.3333 5.99992 13.3333C5.63173 13.3333 5.33325 13.6318 5.33325 14C5.33325 14.3682 5.63173 14.6667 5.99992 14.6667Z" stroke="black" stroke-width="2" stroke-linecap="round" stroke-linejoin="round"/>
<path d="M13.3334 14.6667C13.7016 14.6667 14.0001 14.3682 14.0001 14C14.0001 13.6318 13.7016 13.3333 13.3334 13.3333C12.9652 13.3333 12.6667 13.6318 12.6667 14C12.6667 14.3682 12.9652 14.6667 13.3334 14.6667Z" stroke="black" stroke-width="2" stroke-linecap="round" stroke-linejoin="round"/>
<path d="M0.666748 0.666656H3.33341L5.12008 9.59332C5.18104 9.90025 5.34802 10.176 5.59178 10.3722C5.83554 10.5684 6.14055 10.6727 6.45342 10.6667H12.9334C13.2463 10.6727 13.5513 10.5684 13.7951 10.3722C14.0388 10.176 14.2058 9.90025 14.2667 9.59332L15.3334 3.99999H4.00008" stroke="black" stroke-width="2" stroke-linecap="round" stroke-linejoin="round"/>
</g>
<defs>
<clipPath id="clip0_362_705">
<rect width="16" height="16" fill="white"/>
</clipPath>
</defs>
</svg>
