<svg width="80" height="20" viewBox="0 0 80 20" fill="none" xmlns="http://www.w3.org/2000/svg">
<g clip-path="url(#clip0_75_39)">
<path d="M1.46327 0H0V15.415H1.46327V0Z" fill="white"/>
<path d="M9.84492 4.08589C8.69772 4.08589 7.49198 4.42251 6.26283 5.09575V4.30643H4.85809V15.415H6.26283V6.26813L6.70767 6.05919C7.01203 5.89668 7.45686 5.73418 8.01876 5.58328C8.58066 5.43238 9.11914 5.35112 9.64592 5.35112C10.6878 5.35112 11.3784 5.64131 11.6945 6.2217C12.0223 6.81369 12.1745 7.95124 12.1745 9.63435V15.4034H13.5909V9.5647C13.5909 7.49854 13.3451 6.04758 12.8417 5.26987C12.3383 4.48055 11.3316 4.07428 9.83322 4.07428" fill="white"/>
<path d="M23.4709 10.0174C22.909 9.62276 21.9374 9.29775 20.5795 9.0772C19.2333 8.84505 18.3553 8.6129 17.9807 8.39235C17.6178 8.1718 17.4188 7.77714 17.4188 7.20837C17.4188 5.97796 18.2616 5.37436 20.0059 5.37436C20.9775 5.37436 22.2652 5.50204 23.8455 5.72259H23.8923L23.9391 4.46896L23.307 4.3761C21.9725 4.19038 20.8487 4.08591 19.959 4.08591C18.847 4.08591 17.8988 4.34128 17.1261 4.8288C16.3652 5.31632 15.9789 6.10564 15.9789 7.18515C15.9789 8.26467 16.2599 8.99595 16.8218 9.379C17.372 9.76205 18.3319 10.0639 19.6781 10.2728C21.0009 10.4701 21.8789 10.7023 22.2886 10.9344C22.6749 11.1666 22.8739 11.6541 22.8739 12.3622C22.8739 13.0702 22.6281 13.5926 22.1481 13.8944C21.6681 14.1962 20.9775 14.3587 20.0995 14.3587C19.2216 14.3587 17.9222 14.231 16.2833 13.9872H16.2365L16.1428 15.2409L16.8335 15.3337C18.1212 15.5427 19.1864 15.6471 19.9942 15.6471C21.4106 15.6471 22.4993 15.3802 23.2251 14.8578C23.9626 14.3239 24.3372 13.4881 24.3372 12.3506C24.3372 11.213 24.0562 10.4353 23.4826 10.0406" fill="white"/>
<path d="M30.9043 14.3703C30.1551 14.3703 29.6752 14.1613 29.4762 13.7319C29.2655 13.2908 29.1718 12.3622 29.1718 10.946V5.56007H32.8827V4.30645H29.1718V0.835754H27.7437V4.29484H26.1048V5.54847H27.7437V11.6077C27.7437 13.1747 27.9661 14.2426 28.4109 14.7998C28.8558 15.3569 29.6635 15.6355 30.799 15.6355C31.314 15.6355 32.0749 15.5659 33.0466 15.415H33.0934L32.9997 14.2078L30.916 14.3587L30.9043 14.3703Z" fill="white"/>
<path d="M44.2845 14.4631C43.4065 14.3587 42.9265 14.0453 42.868 13.5345V7.62622C42.868 6.43063 42.5988 5.52524 42.0369 4.94485C41.4867 4.36447 40.5736 4.07428 39.3445 4.07428C38.1153 4.07428 36.6871 4.22518 35.06 4.53859H35.0249L35.0951 5.68774L35.8326 5.6181C37.331 5.44398 38.5835 5.35112 39.52 5.35112C40.1054 5.35112 40.5853 5.52524 40.9482 5.88507C41.2994 6.2333 41.475 6.8253 41.475 7.62622V8.61287L37.7407 8.98432C36.6052 9.112 35.7624 9.42541 35.2356 9.93615C34.6971 10.4469 34.4279 11.2478 34.4279 12.3041C34.4279 13.3604 34.6971 14.1846 35.2122 14.7649C35.7389 15.3337 36.5116 15.6355 37.5066 15.6355C38.8879 15.6355 40.2926 15.3337 41.674 14.7417C42.2125 15.3221 43.067 15.6123 44.2025 15.6123H44.2493L44.3196 14.4747H44.2845V14.4631ZM41.475 9.75042V13.6622L40.9482 13.8479C40.5853 13.9756 40.0702 14.1149 39.4381 14.231C38.806 14.3587 38.2207 14.4167 37.6939 14.4167C36.4764 14.4167 35.8911 13.697 35.8911 12.2345C35.8911 11.5728 36.055 11.0621 36.3594 10.7255C36.6754 10.3772 37.1905 10.1799 37.9046 10.1219L41.475 9.75042Z" fill="white"/>
<path d="M52.4554 11.0041H49.962V15.3686H46.895V0.37146H52.4554C56.0375 0.37146 57.8402 2.11261 57.8402 5.5833C57.8402 7.33606 57.3837 8.67094 56.4706 9.61116C55.5575 10.5398 54.223 11.0041 52.4554 11.0041ZM49.962 8.40396H52.4203C53.9538 8.40396 54.7147 7.46374 54.7147 5.5833C54.7147 4.65469 54.5274 3.98144 54.1528 3.58678C53.7899 3.19212 53.2046 2.98318 52.4203 2.98318H49.962V8.40396Z" fill="white"/>
<path d="M68.0129 7.77712V12.3621C68.048 12.722 68.1065 12.9657 68.1885 13.105C68.2821 13.2443 68.4577 13.3488 68.7504 13.4068L68.6567 15.6355C67.8958 15.6355 67.2988 15.5891 66.8423 15.4846C66.3974 15.3801 65.9409 15.1828 65.4727 14.8694C64.4074 15.3801 63.307 15.6471 62.2066 15.6471C59.9005 15.6471 58.765 14.4399 58.765 12.0255C58.765 10.8532 59.0811 10.0174 59.7249 9.51827C60.3571 9.03075 61.3404 8.74056 62.6632 8.6477L65.0395 8.47358V7.78873C65.0395 7.33603 64.9342 7.02263 64.7352 6.84851C64.5244 6.686 64.1967 6.59314 63.7284 6.59314L59.5493 6.76726L59.4557 4.7127C61.0477 4.28322 62.5578 4.07428 63.986 4.07428C65.4141 4.07428 66.4443 4.36447 67.0764 4.95646C67.7085 5.54845 68.0246 6.48867 68.0246 7.77712M63.0261 10.6906C62.1949 10.7603 61.7852 11.2014 61.7852 12.0139C61.7852 12.8265 62.1481 13.2327 62.8739 13.2327C63.4358 13.2327 64.0562 13.1399 64.7235 12.9657L65.0629 12.8845V10.5281L63.0378 10.7023L63.0261 10.6906Z" fill="white"/>
<path d="M69.5698 4.34128H72.5081L74.5332 12.8613H75.0366L77.0618 4.34128H80L76.0902 20H73.1753L74.3928 15.3686H72.3091L69.5698 4.34128Z" fill="white"/>
</g>
<defs>
<clipPath id="clip0_75_39">
<rect width="80" height="20" fill="white"/>
</clipPath>
</defs>
</svg>
