<svg width="70" height="18" viewBox="0 0 70 18" fill="none" xmlns="http://www.w3.org/2000/svg">
<g clip-path="url(#clip0_27_39)">
<path d="M1.28036 0H0V13.4881H1.28036V0Z" fill="white"/>
<path d="M8.61427 3.57516C7.61047 3.57516 6.55545 3.8697 5.47994 4.45879V3.76814H4.25079V13.4881H5.47994V5.48462L5.86917 5.3018C6.13549 5.1596 6.52472 5.01741 7.01638 4.88537C7.50804 4.75334 7.97921 4.68224 8.44014 4.68224C9.35176 4.68224 9.95609 4.93616 10.2326 5.44399C10.5194 5.96198 10.6526 6.95734 10.6526 8.43006V13.4779H11.892V8.36912C11.892 6.56123 11.6769 5.29164 11.2365 4.61114C10.796 3.92049 9.91512 3.565 8.60403 3.565" fill="white"/>
<path d="M20.537 8.76524C20.0454 8.41991 19.1952 8.13552 18.007 7.94255C16.8291 7.73941 16.0609 7.53628 15.7331 7.3433C15.4156 7.15032 15.2414 6.805 15.2414 6.30732C15.2414 5.23071 15.9789 4.70256 17.5051 4.70256C18.3553 4.70256 19.482 4.81428 20.8648 5.00726H20.9058L20.9467 3.91034L20.3936 3.82908C19.2259 3.66658 18.2426 3.57516 17.4642 3.57516C16.4911 3.57516 15.6614 3.79861 14.9854 4.22519C14.3196 4.65178 13.9816 5.34243 13.9816 6.287C13.9816 7.23158 14.2274 7.87145 14.7191 8.20662C15.2005 8.54179 16.0404 8.80587 17.2183 8.98869C18.3758 9.16135 19.144 9.36449 19.5025 9.56762C19.8405 9.77075 20.0146 10.1973 20.0146 10.8169C20.0146 11.4365 19.7995 11.8935 19.3796 12.1576C18.9596 12.4217 18.3553 12.5638 17.5871 12.5638C16.8189 12.5638 15.6819 12.4521 14.2479 12.2388H14.2069L14.125 13.3358L14.7293 13.417C15.856 13.5998 16.7881 13.6912 17.4949 13.6912C18.7343 13.6912 19.6869 13.4576 20.3219 13.0006C20.9672 12.5334 21.295 11.8021 21.295 10.8067C21.295 9.81138 21.0492 9.13088 20.5473 8.78555" fill="white"/>
<path d="M27.0413 12.574C26.3857 12.574 25.9658 12.3912 25.7916 12.0154C25.6073 11.6294 25.5253 10.8169 25.5253 9.57778V4.86507H28.7723V3.76815H25.5253V0.731293H24.2757V3.75799H22.8417V4.85492H24.2757V10.1567C24.2757 11.5279 24.4703 12.4623 24.8595 12.9498C25.2488 13.4373 25.9555 13.6811 26.9491 13.6811C27.3998 13.6811 28.0656 13.6201 28.9157 13.4881H28.9567L28.8747 12.4318L27.0515 12.5639L27.0413 12.574Z" fill="white"/>
<path d="M38.7489 12.6553C37.9807 12.5638 37.5607 12.2896 37.5095 11.8427V6.67295C37.5095 5.62681 37.2739 4.83459 36.7823 4.32676C36.3009 3.81892 35.5019 3.565 34.4264 3.565C33.3509 3.565 32.1013 3.69704 30.6775 3.97127H30.6468L30.7082 4.97678L31.3535 4.91584C32.6646 4.76349 33.7606 4.68224 34.5801 4.68224C35.0922 4.68224 35.5122 4.83459 35.8297 5.14945C36.137 5.45415 36.2906 5.97214 36.2906 6.67295V7.53627L33.0231 7.86129C32.0296 7.97301 31.2921 8.24724 30.8312 8.69414C30.36 9.14103 30.1244 9.84185 30.1244 10.7661C30.1244 11.6904 30.36 12.4115 30.8107 12.9193C31.2716 13.417 31.9476 13.6811 32.8183 13.6811C34.0269 13.6811 35.2561 13.417 36.4647 12.899C36.9359 13.4068 37.6837 13.6608 38.6772 13.6608H38.7182L38.7796 12.6654H38.7489V12.6553ZM36.2906 8.53163V11.9544L35.8297 12.1169C35.5122 12.2287 35.0615 12.3506 34.5084 12.4521C33.9552 12.5638 33.4431 12.6146 32.9822 12.6146C31.9169 12.6146 31.4048 11.9849 31.4048 10.7052C31.4048 10.1262 31.5482 9.67934 31.8145 9.38479C32.091 9.08009 32.5417 8.90743 33.1665 8.85664L36.2906 8.53163Z" fill="white"/>
<path d="M45.8985 9.62855H43.7167V13.4475H41.0331V0.325012H45.8985C49.0328 0.325012 50.6102 1.84852 50.6102 4.88537C50.6102 6.41903 50.2107 7.58706 49.4118 8.40975C48.6128 9.22228 47.4451 9.62855 45.8985 9.62855ZM43.7167 7.35345H45.8677C47.2095 7.35345 47.8753 6.53076 47.8753 4.88537C47.8753 4.07284 47.7115 3.48375 47.3837 3.13842C47.0661 2.79309 46.554 2.61027 45.8677 2.61027H43.7167V7.35345Z" fill="white"/>
<path d="M59.5113 6.80499V10.8169C59.542 11.1317 59.5932 11.345 59.6649 11.4669C59.7469 11.5888 59.9005 11.6802 60.1566 11.731L60.0746 13.6811C59.4088 13.6811 58.8864 13.6405 58.487 13.549C58.0977 13.4576 57.6983 13.285 57.2886 13.0107C56.3565 13.4576 55.3936 13.6912 54.4308 13.6912C52.4129 13.6912 51.4194 12.6349 51.4194 10.5223C51.4194 9.49652 51.6959 8.76523 52.2593 8.3285C52.8124 7.90191 53.6728 7.648 54.8303 7.56674L56.9096 7.41439V6.81515C56.9096 6.41904 56.8174 6.14481 56.6433 5.99245C56.4589 5.85026 56.1721 5.76901 55.7624 5.76901L52.1056 5.92136L52.0237 4.12362C53.4167 3.74782 54.7381 3.565 55.9877 3.565C57.2373 3.565 58.1387 3.81892 58.6918 4.33691C59.2449 4.8549 59.5215 5.6776 59.5215 6.80499M55.1478 9.35432C54.4205 9.41526 54.062 9.80122 54.062 10.5122C54.062 11.2232 54.3796 11.5786 55.0146 11.5786C55.5063 11.5786 56.0492 11.4974 56.633 11.345L56.9301 11.2739V9.21213L55.158 9.36448L55.1478 9.35432Z" fill="white"/>
<path d="M60.8736 3.79861H63.4446L65.2166 11.2536H65.657L67.4291 3.79861H70L66.5789 17.5H64.0284L65.0937 13.4475H63.2704L60.8736 3.79861Z" fill="white"/>
</g>
<defs>
<clipPath id="clip0_27_39">
<rect width="70" height="17.5" fill="white"/>
</clipPath>
</defs>
</svg>
